<?xml version="1.0" encoding="UTF-8" standalone="no"?>
<!-- Created with Inkscape (http://www.inkscape.org/) -->

<svg
   xmlns:dc="http://purl.org/dc/elements/1.1/"
   xmlns:cc="http://creativecommons.org/ns#"
   xmlns:rdf="http://www.w3.org/1999/02/22-rdf-syntax-ns#"
   xmlns:svg="http://www.w3.org/2000/svg"
   xmlns="http://www.w3.org/2000/svg"
   xmlns:sodipodi="http://sodipodi.sourceforge.net/DTD/sodipodi-0.dtd"
   xmlns:inkscape="http://www.inkscape.org/namespaces/inkscape"
   id="svg2"
   version="1.1"
   inkscape:version="0.48.4 r9939"
   width="1013.3875"
   height="729.925"
   xml:space="preserve"
   sodipodi:docname="SquareLogo.svg"><metadata
     id="metadata8"><rdf:RDF><cc:Work
         rdf:about=""><dc:format>image/svg+xml</dc:format><dc:type
           rdf:resource="http://purl.org/dc/dcmitype/StillImage" /><dc:title></dc:title></cc:Work></rdf:RDF></metadata><defs
     id="defs6"><clipPath
       clipPathUnits="userSpaceOnUse"
       id="clipPath20"><path
         d="m 0,583.94 810.71,0 L 810.71,0 0,0 0,583.94 z"
         id="path22" /></clipPath></defs><sodipodi:namedview
     pagecolor="#ffffff"
     bordercolor="#666666"
     borderopacity="1"
     objecttolerance="10"
     gridtolerance="10"
     guidetolerance="10"
     inkscape:pageopacity="0"
     inkscape:pageshadow="2"
     inkscape:window-width="1680"
     inkscape:window-height="987"
     id="namedview4"
     showgrid="false"
     inkscape:zoom="1"
     inkscape:cx="583.48443"
     inkscape:cy="383.8267"
     inkscape:window-x="-8"
     inkscape:window-y="-8"
     inkscape:window-maximized="1"
     inkscape:current-layer="g10" /><g
     id="g10"
     inkscape:groupmode="layer"
     inkscape:label="SquareLogo"
     transform="matrix(1.25,0,0,-1.25,0,729.925)"
     style="display:inline"><g
       id="g3180"
       style="fill:#008bba;fill-opacity:1"
       transform="matrix(5.4871508,0,0,5.4871508,-1821.3787,-1356.8548)"
       inkscape:export-filename="E:\Github\MonoGame.Extended\Logos\logo-square-1024.png"
       inkscape:export-xdpi="150.12828"
       inkscape:export-ydpi="150.12828"><g
         style="fill:#008bba;fill-opacity:1"
         transform="translate(450.0909,308.6783)"
         id="g52"><path
           inkscape:connector-curvature="0"
           id="path54"
           transform="matrix(0.8,0,0,-0.8,-450.0909,275.2617)"
           d="m 483.78125,295.78125 c -18.20125,0 -33,14.83125 -33,33.03125 l 0,45.8125 c 0,18.20875 14.79875,33 33,33 l 7.75,0 0,-20.1875 -7.75,0 c -7.0575,0 -12.8125,-5.7475 -12.8125,-12.8125 l 0,-45.8125 c 0,-7.06375 5.755,-12.8125 12.8125,-12.8125 7.06375,0 12.8125,5.74875 12.8125,12.8125 l 0,15.25 20.1875,0 0,-15.25 c 0,-7.06375 5.74875,-12.8125 12.8125,-12.8125 7.05625,0 12.8125,5.74875 12.8125,12.8125 l 0,15.25 -46.0625,43.42109 14.96875,20.17266 51.3125,-63.59375 0,-15.25 c -0.0106,-18.19999 -14.83125,-33.03125 -33.03125,-33.03125 -8.8875,0 -16.9625,3.55125 -22.90625,9.28125 -5.9425,-5.73 -14.02,-9.28125 -22.90625,-9.28125 z"
           style="fill:#008bba;fill-opacity:1;fill-rule:nonzero;stroke:none"
           sodipodi:nodetypes="ssssccsssssccssscccccscs" /></g><path
         style="fill:#008bba;fill-opacity:1;stroke:none"
         d="m 413.275,309.19 -15.5386,-0.12803 -0.2864,-0.37197 -21.575,0 0,-19.95 37.375,0 0,0.35 25,-30.975 11.9,16.25 z m -21.85,-35.2 0,-16.15 17.65,0 0,16.15 z"
         id="rect3049"
         inkscape:connector-curvature="0"
         sodipodi:nodetypes="ccccccccccccccc" /></g></g></svg>